<svg width="409" height="49" viewBox="0 0 409 49" fill="none" xmlns="http://www.w3.org/2000/svg">
<g clip-path="url(#clip0_162_49)">
<mask id="mask0_162_49" style="mask-type:luminance" maskUnits="userSpaceOnUse" x="0" y="1" width="48" height="47">
<path d="M47.5 1H0.5V48H47.5V1Z" fill="white"/>
</mask>
<g mask="url(#mask0_162_49)">
<path d="M9.9 1H0.5V48H9.9V1Z" fill="white"/>
<path d="M47.5006 25.4399H38.1006V47.9999H47.5006V25.4399Z" fill="white"/>
<path d="M54.1888 20.5262L47.542 13.8794L13.0678 48.3536L19.7146 55.0004L54.1888 20.5262Z" fill="white"/>
<path d="M47.6702 0.845535L41.0234 -5.80127L17.6965 17.5257L24.3433 24.1725L47.6702 0.845535Z" fill="white"/>
<path d="M0.334639 0.845537L6.98145 -5.80127L30.6486 17.8659L24.0018 24.5127L0.334639 0.845537Z" fill="white"/>
</g>
</g>
<path d="M101.091 48H89L104.705 1.45454H119.682L135.386 48H123.295L112.364 13.1818H112L101.091 48ZM99.4773 29.6818H124.75V38.2273H99.4773V29.6818ZM140.398 48V1.45454H172.17V10.5909H151.648V20.1364H170.148V29.2955H151.648V48H140.398ZM177.835 48V1.45454H209.608V10.5909H189.085V20.1364H207.585V29.2955H189.085V48H177.835ZM226.523 1.45454V48H215.273V1.45454H226.523ZM275.835 18.3182H264.472C264.32 17.1515 264.009 16.0985 263.54 15.1591C263.07 14.2197 262.449 13.4167 261.676 12.75C260.903 12.0833 259.987 11.5758 258.926 11.2273C257.881 10.8636 256.722 10.6818 255.449 10.6818C253.191 10.6818 251.244 11.2348 249.608 12.3409C247.987 13.447 246.737 15.0455 245.858 17.1364C244.994 19.2273 244.562 21.7576 244.562 24.7273C244.562 27.8182 245.002 30.4091 245.881 32.5C246.775 34.5758 248.025 36.1439 249.631 37.2045C251.252 38.25 253.169 38.7727 255.381 38.7727C256.623 38.7727 257.752 38.6136 258.767 38.2955C259.797 37.9773 260.699 37.5152 261.472 36.9091C262.259 36.2879 262.903 35.5379 263.403 34.6591C263.919 33.7652 264.275 32.7576 264.472 31.6364L275.835 31.7045C275.638 33.7652 275.04 35.7955 274.04 37.7955C273.055 39.7955 271.699 41.6212 269.972 43.2727C268.244 44.9091 266.138 46.2121 263.653 47.1818C261.184 48.1515 258.35 48.6364 255.153 48.6364C250.941 48.6364 247.169 47.7121 243.835 45.8636C240.517 44 237.896 41.2879 235.972 37.7273C234.047 34.1667 233.085 29.8333 233.085 24.7273C233.085 19.6061 234.062 15.2652 236.017 11.7045C237.972 8.14394 240.616 5.43939 243.949 3.59091C247.282 1.74242 251.017 0.81818 255.153 0.81818C257.972 0.81818 260.578 1.21212 262.972 2C265.366 2.77273 267.472 3.90909 269.29 5.40909C271.108 6.89394 272.585 8.7197 273.722 10.8864C274.858 13.053 275.562 15.5303 275.835 18.3182ZM282.273 48V1.45454H293.523V20.1364H311.864V1.45454H323.091V48H311.864V29.2955H293.523V48H282.273ZM330.148 48V1.45454H362.602V10.5909H341.398V20.1364H360.943V29.2955H341.398V38.8636H362.602V48H330.148ZM394.807 15.4091C394.655 13.7424 393.981 12.447 392.784 11.5227C391.602 10.5833 389.913 10.1136 387.716 10.1136C386.261 10.1136 385.049 10.303 384.08 10.6818C383.11 11.0606 382.383 11.5833 381.898 12.25C381.413 12.9015 381.163 13.6515 381.148 14.5C381.117 15.197 381.254 15.8106 381.557 16.3409C381.875 16.8712 382.33 17.3409 382.92 17.75C383.527 18.1439 384.254 18.4924 385.102 18.7955C385.951 19.0985 386.905 19.3636 387.966 19.5909L391.966 20.5C394.269 21 396.299 21.6667 398.057 22.5C399.83 23.3333 401.314 24.3258 402.511 25.4773C403.723 26.6288 404.64 27.9545 405.261 29.4545C405.883 30.9545 406.201 32.6364 406.216 34.5C406.201 37.4394 405.458 39.9621 403.989 42.0682C402.519 44.1742 400.405 45.7879 397.648 46.9091C394.905 48.0303 391.595 48.5909 387.716 48.5909C383.822 48.5909 380.428 48.0076 377.534 46.8409C374.64 45.6742 372.39 43.9015 370.784 41.5227C369.178 39.1439 368.352 36.1364 368.307 32.5H379.08C379.17 34 379.572 35.25 380.284 36.25C380.996 37.25 381.973 38.0076 383.216 38.5227C384.473 39.0379 385.928 39.2955 387.58 39.2955C389.095 39.2955 390.383 39.0909 391.443 38.6818C392.519 38.2727 393.345 37.7045 393.92 36.9773C394.496 36.25 394.792 35.4167 394.807 34.4773C394.792 33.5985 394.519 32.8485 393.989 32.2273C393.458 31.5909 392.64 31.0455 391.534 30.5909C390.443 30.1212 389.049 29.6894 387.352 29.2955L382.489 28.1591C378.458 27.2348 375.284 25.7424 372.966 23.6818C370.648 21.6061 369.496 18.803 369.511 15.2727C369.496 12.3939 370.269 9.87121 371.83 7.70454C373.39 5.53788 375.549 3.84848 378.307 2.63636C381.064 1.42424 384.208 0.81818 387.739 0.81818C391.345 0.81818 394.473 1.43182 397.125 2.65909C399.792 3.87121 401.86 5.57576 403.33 7.77273C404.799 9.9697 405.549 12.5151 405.58 15.4091H394.807Z" fill="white"/>
<defs>
<clipPath id="clip0_162_49">
<rect width="47" height="47" fill="white" transform="translate(0.5 1)"/>
</clipPath>
</defs>
</svg>
