<svg width="24" height="24" viewBox="0 0 24 24" fill="none" xmlns="http://www.w3.org/2000/svg">
<path d="M11.0788 1.18058C11.4229 0.366112 12.5771 0.366113 12.9212 1.18059L15.7028 7.76517C15.8041 8.00501 15.995 8.19588 16.2348 8.2972L22.8194 11.0788C23.6339 11.4229 23.6339 12.5771 22.8194 12.9212L16.2348 15.7028C15.995 15.8041 15.8041 15.995 15.7028 16.2348L12.9212 22.8194C12.5771 23.6339 11.4229 23.6339 11.0788 22.8194L8.2972 16.2348C8.19588 15.995 8.00501 15.8041 7.76517 15.7028L1.18058 12.9212C0.366112 12.5771 0.366113 11.4229 1.18059 11.0788L7.76517 8.2972C8.00501 8.19588 8.19588 8.00501 8.2972 7.76517L11.0788 1.18058Z" fill="white" style="mix-blend-mode:difference"/>
</svg>
